<svg xmlns="http://www.w3.org/2000/svg" viewBox="0 0 1024 1024">
  <defs>
    <linearGradient id="bg" x1="186" y1="94" x2="838" y2="930" gradientUnits="userSpaceOnUse">
      <stop offset="0" stop-color="#ffffff"/>
      <stop offset="1" stop-color="#f5f7fb"/>
    </linearGradient>
    <filter id="softShadow" x="-20%" y="-20%" width="140%" height="140%">
      <feDropShadow dx="0" dy="34" stdDeviation="32" flood-color="#111111" flood-opacity="0.12"/>
    </filter>
  </defs>
  <rect width="1024" height="1024" rx="228" fill="url(#bg)"/>
  <circle cx="512" cy="512" r="322" fill="#ffffff" filter="url(#softShadow)"/>
  <g filter="url(#softShadow)">
    <path d="M 392.75 287.73 A 254 254 0 0 1 740.29 623.35" fill="none" stroke="#007aff" stroke-width="118" stroke-linecap="round"/>
    <path d="M 722.58 654.03 A 254 254 0 0 1 355.62 712.15" fill="none" stroke="#34c759" stroke-width="118" stroke-linecap="round"/>
    <path d="M 323.24 681.96 A 254 254 0 0 1 279.96 408.69" fill="none" stroke="#ff9f0a" stroke-width="118" stroke-linecap="round"/>
    <path d="M 301.42 369.97 A 254 254 0 0 1 476.65 260.47" fill="none" stroke="#5e5ce6" stroke-width="118" stroke-linecap="round"/>
    <path d="M 520.86 258.15 A 254 254 0 0 1 654.03 301.42" fill="none" stroke="#ff375f" stroke-width="118" stroke-linecap="round"/>
    <circle cx="512" cy="512" r="154" fill="#ffffff"/>
    <circle cx="512" cy="512" r="92" fill="#111111"/>
    <circle cx="512" cy="512" r="42" fill="#ffffff"/>
    <rect x="458" y="142" width="108" height="58" rx="29" fill="#ffffff" opacity="0.92"/>
    <circle cx="734" cy="282" r="36" fill="#ffffff" opacity="0.92"/>
    <path d="M766 650l54 94H712z" fill="#ffffff" opacity="0.92"/>
  </g>
</svg>
